<svg width="40" height="41" viewBox="0 0 40 41" fill="none" xmlns="http://www.w3.org/2000/svg">
<g id="iconspace_Create New 1_25px">
<path id="Path" d="M34.4542 15.5811C34.4542 14.9338 34.979 14.409 35.6263 14.409C36.2737 14.409 36.7984 14.9338 36.7984 15.5811V31.1362C36.7984 34.3728 34.1746 36.9966 30.938 36.9966H9.05889C5.82224 36.9966 3.19843 34.3728 3.19843 31.1362V9.25709C3.19843 6.02044 5.82224 3.39662 9.05889 3.39662H23.1345C23.7818 3.39662 24.3066 3.92139 24.3066 4.56871C24.3066 5.21604 23.7818 5.74081 23.1345 5.74081H9.05889C7.1169 5.74081 5.54261 7.3151 5.54261 9.25709V31.1362C5.54261 33.0781 7.1169 34.6524 9.05889 34.6524H30.938C32.8799 34.6524 34.4542 33.0781 34.4542 31.1362V15.5811Z" fill="#FF8345"/>
<path id="Path_2" fill-rule="evenodd" clip-rule="evenodd" d="M16.8134 17.5264L22.6871 23.3649L36.2387 9.81336C36.986 9.06604 36.986 7.85439 36.2387 7.10707L33.0888 3.95726C32.3415 3.20994 31.1299 3.20994 30.3826 3.95726L16.8134 17.5264ZM21.1586 24.6956C21.3073 24.6678 21.4448 24.5984 21.5555 24.4958L15.6835 18.659C15.5901 18.7663 15.5267 18.8969 15.5004 19.0374L14.413 24.8495C14.3095 25.4023 14.7937 25.8864 15.3464 25.783L21.1586 24.6956Z" fill="#FF8345"/>
</g>
</svg>
