<svg width="40" height="41" viewBox="0 0 40 41" fill="none" xmlns="http://www.w3.org/2000/svg">
<g id="iconspace_Pen_25px">
<path id="Path" fill-rule="evenodd" clip-rule="evenodd" d="M23.539 35.023L30.3991 21.2992C29.8964 21.237 29.4099 21.0129 29.024 20.6269L21.1704 12.7713C20.7846 12.3854 20.5605 11.8988 20.4983 11.3961L6.77816 18.2579C6.53489 18.3795 6.37187 18.6185 6.34725 18.8894L4.79907 35.9237L13.373 27.5494C12.2579 26.0136 12.3926 23.8523 13.7769 22.4676C15.3104 20.9337 17.7967 20.9337 19.3302 22.4676C20.8637 24.0015 20.8637 26.4884 19.3302 28.0223C18.0288 29.3241 16.041 29.5211 14.5319 28.6132L5.94923 36.9961L22.9076 35.454C23.1785 35.4294 23.4173 35.2663 23.539 35.023ZM18.2196 23.5777C17.2995 22.6574 15.8077 22.6574 14.8876 23.5777C13.9675 24.498 13.9675 25.9902 14.8876 26.9105C15.8077 27.8309 17.2995 27.8309 18.2196 26.9105C19.1397 25.9902 19.1397 24.498 18.2196 23.5777Z" fill="#FF8345"/>
<path id="Path_2" d="M30.6329 19.162L22.6329 11.162C22.3205 10.8496 22.3205 10.3431 22.6329 10.0307L27.4329 5.23065C27.7453 4.91823 28.2518 4.91823 28.5642 5.23065L36.5642 13.2307C36.8767 13.5431 36.8767 14.0496 36.5642 14.362L31.7642 19.162C31.4518 19.4744 30.9453 19.4744 30.6329 19.162Z" fill="#FF8345"/>
</g>
</svg>
