<svg width="40" height="41" viewBox="0 0 40 41" fill="none" xmlns="http://www.w3.org/2000/svg">
<g id="iconspace_Camera 1_25px">
<path id="Path" fill-rule="evenodd" clip-rule="evenodd" d="M11.505 9.79632L12.8958 7.01559C13.0226 6.78116 13.2284 6.44791 13.4903 6.10802C13.828 5.66987 14.1695 5.34076 14.5534 5.15352C14.7591 5.05319 14.9746 4.99632 15.1993 4.99632H24.7993C25.0241 4.99632 25.2396 5.05319 25.4453 5.15352C25.8292 5.34076 26.1707 5.66987 26.5084 6.10802C26.7703 6.44791 26.9761 6.78116 27.1149 7.03855L28.4938 9.79632H31.1993C34.2921 9.79632 36.7993 12.3035 36.7993 15.3963V29.7963C36.7993 32.8891 34.2921 35.3963 31.1993 35.3963H8.79934C5.70655 35.3963 3.19934 32.8891 3.19934 29.7963V15.3963C3.19934 12.3035 5.70655 9.79632 8.79934 9.79632H11.505ZM9.59952 17.7966C10.4832 17.7966 11.1995 17.0803 11.1995 16.1966C11.1995 15.313 10.4832 14.5966 9.59952 14.5966C8.71586 14.5966 7.99952 15.313 7.99952 16.1966C7.99952 17.0803 8.71586 17.7966 9.59952 17.7966ZM27.1996 21.7966C27.1996 25.7731 23.976 28.9966 19.9996 28.9966C16.0231 28.9966 12.7996 25.7731 12.7996 21.7966C12.7996 17.8202 16.0231 14.5966 19.9996 14.5966C23.976 14.5966 27.1996 17.8202 27.1996 21.7966Z" fill="#FF8345"/>
<path id="Path_2" fill-rule="evenodd" clip-rule="evenodd" d="M19.9991 27.3961C23.0919 27.3961 25.5991 24.8889 25.5991 21.7961C25.5991 18.7033 23.0919 16.1961 19.9991 16.1961C16.9063 16.1961 14.3991 18.7033 14.3991 21.7961C14.3991 24.8889 16.9063 27.3961 19.9991 27.3961Z" fill="#FF8345"/>
</g>
</svg>
