<svg width="40" height="41" viewBox="0 0 40 41" fill="none" xmlns="http://www.w3.org/2000/svg">
<g id="iconspace_Headset A_25px">
<path id="Path" fill-rule="evenodd" clip-rule="evenodd" d="M36.7984 25.2707C36.1493 24.4685 35.3312 23.8085 34.3984 23.345V20.1965C34.3984 12.0227 28.1722 5.84498 19.9984 5.84498C11.8246 5.84498 5.59843 12.0227 5.59843 20.1965V23.345C4.6656 23.8085 3.84757 24.4685 3.19843 25.2707V20.1965C3.19843 10.6972 10.4991 3.44498 19.9984 3.44498C29.4977 3.44498 36.7984 10.6972 36.7984 20.1965V25.2707ZM8.06937 24.2436C8.02292 24.4874 7.99861 24.7391 7.99861 24.9965V34.5965C7.99861 34.8539 8.02292 35.1056 8.06937 35.3495C5.32112 34.9921 3.19861 32.6422 3.19861 29.7965C3.19861 26.9509 5.32112 24.601 8.06937 24.2436ZM31.9989 34.5965C31.9989 34.8539 31.9746 35.1056 31.9282 35.3495C34.6764 34.9921 36.7989 32.6422 36.7989 29.7965C36.7989 26.9509 34.6764 24.601 31.9282 24.2436C31.9746 24.4874 31.9989 24.7391 31.9989 24.9965V34.5965Z" fill="#FF8345"/>
<path id="Path_2" fill-rule="evenodd" clip-rule="evenodd" d="M13.5991 22.5959H11.9991C10.6736 22.5959 9.59912 23.6704 9.59912 24.9959V34.5959C9.59912 35.9213 10.6736 36.9959 11.9991 36.9959H13.5991C14.9246 36.9959 15.9991 35.9213 15.9991 34.5959V24.9959C15.9991 23.6704 14.9246 22.5959 13.5991 22.5959ZM27.9988 22.596H26.3988C25.0733 22.596 23.9988 23.6705 23.9988 24.996V34.596C23.9988 35.9215 25.0733 36.996 26.3988 36.996H27.9988C29.3243 36.996 30.3988 35.9215 30.3988 34.596V24.996C30.3988 23.6705 29.3243 22.596 27.9988 22.596Z" fill="#FF8345"/>
</g>
</svg>
