<svg width="40" height="41" viewBox="0 0 40 41" fill="none" xmlns="http://www.w3.org/2000/svg">
<g id="iconspace_Create New 1_25px">
<path id="Path" d="M34.4552 16.337C34.4552 15.6896 34.98 15.1649 35.6273 15.1649C36.2746 15.1649 36.7994 15.6896 36.7994 16.337V31.892C36.7994 35.1286 34.1756 37.7525 30.9389 37.7525H9.05987C5.82322 37.7525 3.1994 35.1286 3.1994 31.892V10.0129C3.1994 6.77629 5.82322 4.15247 9.05987 4.15247H23.1355C23.7828 4.15247 24.3076 4.67723 24.3076 5.32456C24.3076 5.97189 23.7828 6.49665 23.1355 6.49665H9.05987C7.11788 6.49665 5.54359 8.07094 5.54359 10.0129V31.892C5.54359 33.834 7.11788 35.4083 9.05987 35.4083H30.9389C32.8809 35.4083 34.4552 33.834 34.4552 31.892V16.337Z" fill="#FF8345"/>
<path id="Path_2" fill-rule="evenodd" clip-rule="evenodd" d="M16.8143 18.2823L22.688 24.1208L36.2396 10.5692C36.9869 9.82192 36.9869 8.61028 36.2396 7.86296L33.0898 4.71314C32.3425 3.96582 31.1308 3.96582 30.3835 4.71314L16.8143 18.2823ZM21.1596 25.4515C21.3083 25.4236 21.4458 25.3543 21.5564 25.2517L15.6845 19.4149C15.591 19.5222 15.5277 19.6528 15.5014 19.7932L14.4139 25.6054C14.3105 26.1582 14.7946 26.6423 15.3474 26.5389L21.1596 25.4515Z" fill="#FF8345"/>
</g>
</svg>
