<svg width="41" height="41" viewBox="0 0 41 41" fill="none" xmlns="http://www.w3.org/2000/svg">
<g id="iconspace_Camera 1_25px">
<path id="Path" fill-rule="evenodd" clip-rule="evenodd" d="M12.503 10.5522L13.8938 7.77146C14.0207 7.53704 14.2265 7.20378 14.4884 6.8639C14.826 6.42574 15.1676 6.09663 15.5515 5.90939C15.7572 5.80906 15.9726 5.7522 16.1974 5.7522H25.7974C26.0222 5.7522 26.2376 5.80906 26.4433 5.90939C26.8272 6.09663 27.1688 6.42574 27.5064 6.8639C27.7683 7.20378 27.9741 7.53704 28.1129 7.79443L29.4918 10.5522H32.1974C35.2902 10.5522 37.7974 13.0594 37.7974 16.1522V30.5522C37.7974 33.645 35.2902 36.1522 32.1974 36.1522H9.7974C6.70461 36.1522 4.1974 33.645 4.1974 30.5522V16.1522C4.1974 13.0594 6.70461 10.5522 9.7974 10.5522H12.503ZM10.5976 18.5525C11.4812 18.5525 12.1976 17.8362 12.1976 16.9525C12.1976 16.0688 11.4812 15.3525 10.5976 15.3525C9.71392 15.3525 8.99758 16.0688 8.99758 16.9525C8.99758 17.8362 9.71392 18.5525 10.5976 18.5525ZM28.1976 22.5525C28.1976 26.529 24.9741 29.7525 20.9976 29.7525C17.0212 29.7525 13.7976 26.529 13.7976 22.5525C13.7976 18.5761 17.0212 15.3525 20.9976 15.3525C24.9741 15.3525 28.1976 18.5761 28.1976 22.5525Z" fill="#FF8345"/>
<path id="Path_2" fill-rule="evenodd" clip-rule="evenodd" d="M20.9972 28.152C24.09 28.152 26.5972 25.6448 26.5972 22.552C26.5972 19.4592 24.09 16.952 20.9972 16.952C17.9044 16.952 15.3972 19.4592 15.3972 22.552C15.3972 25.6448 17.9044 28.152 20.9972 28.152Z" fill="#FF8345"/>
</g>
</svg>
