<svg width="41" height="41" viewBox="0 0 41 41" fill="none" xmlns="http://www.w3.org/2000/svg">
<g id="iconspace_Headset A_25px">
<path id="Path" fill-rule="evenodd" clip-rule="evenodd" d="M37.1314 26.0266C36.4823 25.2244 35.6643 24.5644 34.7314 24.1008V20.9524C34.7314 12.7786 28.5052 6.60087 20.3314 6.60087C12.1576 6.60087 5.93143 12.7786 5.93143 20.9524V24.1008C4.99861 24.5644 4.18058 25.2244 3.53143 26.0266V20.9524C3.53143 11.4531 10.8321 4.20087 20.3314 4.20087C29.8307 4.20087 37.1314 11.4531 37.1314 20.9524V26.0266ZM8.40238 24.9995C8.35593 25.2433 8.33162 25.495 8.33162 25.7524V35.3524C8.33162 35.6098 8.35593 35.8615 8.40238 36.1054C5.65413 35.748 3.53162 33.3981 3.53162 30.5524C3.53162 27.7068 5.65413 25.3569 8.40238 24.9995ZM32.3319 35.3524C32.3319 35.6098 32.3076 35.8615 32.2612 36.1054C35.0094 35.748 37.1319 33.3981 37.1319 30.5524C37.1319 27.7068 35.0094 25.3569 32.2612 24.9995C32.3076 25.2433 32.3319 25.495 32.3319 25.7524V35.3524Z" fill="#FF8345"/>
<path id="Path_2" fill-rule="evenodd" clip-rule="evenodd" d="M13.9321 23.3517H12.3321C11.0066 23.3517 9.93213 24.4262 9.93213 25.7517V35.3517C9.93213 36.6772 11.0066 37.7517 12.3321 37.7517H13.9321C15.2576 37.7517 16.3321 36.6772 16.3321 35.3517V25.7517C16.3321 24.4262 15.2576 23.3517 13.9321 23.3517ZM28.3318 23.3518H26.7318C25.4063 23.3518 24.3318 24.4263 24.3318 25.7518V35.3518C24.3318 36.6773 25.4063 37.7518 26.7318 37.7518H28.3318C29.6573 37.7518 30.7318 36.6773 30.7318 35.3518V25.7518C30.7318 24.4263 29.6573 23.3518 28.3318 23.3518Z" fill="#FF8345"/>
</g>
</svg>
