<svg width="41" height="41" viewBox="0 0 41 41" fill="none" xmlns="http://www.w3.org/2000/svg">
<g id="iconspace_Pen_25px">
<path id="Path" fill-rule="evenodd" clip-rule="evenodd" d="M23.872 35.7788L30.7321 22.0551C30.2294 21.9929 29.7429 21.7688 29.357 21.3828L21.5034 13.5272C21.1176 13.1412 20.8935 12.6547 20.8313 12.1519L7.11117 19.0137C6.8679 19.1354 6.70488 19.3743 6.68026 19.6452L5.13208 36.6795L13.706 28.3053C12.5909 26.7695 12.7256 24.6081 14.1099 23.2234C15.6434 21.6895 18.1297 21.6895 19.6632 23.2234C21.1967 24.7573 21.1967 27.2443 19.6632 28.7782C18.3618 30.08 16.374 30.2769 14.8649 29.3691L6.28224 37.7519L23.2406 36.2098C23.5115 36.1852 23.7503 36.0222 23.872 35.7788ZM18.5526 24.3336C17.6325 23.4132 16.1407 23.4132 15.2206 24.3336C14.3005 25.2539 14.3005 26.7461 15.2206 27.6664C16.1407 28.5867 17.6325 28.5867 18.5526 27.6664C19.4727 26.7461 19.4727 25.2539 18.5526 24.3336Z" fill="#FF8345"/>
<path id="Path_2" d="M30.9659 19.9179L22.9659 11.9179C22.6535 11.6055 22.6535 11.0989 22.9659 10.7865L27.7659 5.98651C28.0783 5.67409 28.5848 5.67409 28.8973 5.98651L36.8973 13.9865C37.2097 14.2989 37.2097 14.8055 36.8973 15.1179L32.0973 19.9179C31.7848 20.2303 31.2783 20.2303 30.9659 19.9179Z" fill="#FF8345"/>
</g>
</svg>
