<svg width="40" height="41" viewBox="0 0 40 41" fill="none" xmlns="http://www.w3.org/2000/svg">
<g id="iconspace_Marketing_25px">
<path id="path" fill-rule="evenodd" clip-rule="evenodd" d="M17.2521 8.83232L14.3984 9.14012V23.2653L17.3319 23.5856L28.8689 27.2833C29.1047 27.3586 29.3508 27.3969 29.5984 27.3969C30.9239 27.3969 31.9984 26.3224 31.9984 24.9969V7.39723C31.9984 7.14871 31.9598 6.9017 31.884 6.66502C31.4796 5.40273 30.1285 4.70726 28.8662 5.11165L27.1984 5.64594V13.7966C27.1984 14.2384 26.8402 14.5966 26.3984 14.5966C25.9566 14.5966 25.5984 14.2384 25.5984 13.7966V6.15851L17.2521 8.83232ZM12.7986 23.0909V9.31299L8.19808 9.8092C5.35422 10.1159 3.19861 12.5166 3.19861 15.3769V17.0208C3.19861 19.8783 5.35008 22.2775 8.19071 22.5877L12.7986 23.0909Z" fill="#FF8345"/>
<path id="path_2" fill-rule="evenodd" clip-rule="evenodd" d="M35.9987 16.196C35.9987 14.5478 35.0441 13.1153 33.5987 12.2542V20.1378C35.0441 19.2767 35.9987 17.8442 35.9987 16.196ZM8.01742 24.1771C7.74596 24.1475 7.4794 24.103 7.21851 24.0445L10.4313 32.2713C10.7909 33.1921 11.6783 33.7983 12.6669 33.7983H13.5621C13.7048 33.7983 13.8471 33.7856 13.9875 33.7603C15.292 33.5254 16.1591 32.2775 15.9242 30.973L14.8345 24.9215L8.01742 24.1771Z" fill="#FF8345"/>
</g>
</svg>
